<svg xmlns="http://www.w3.org/2000/svg" viewBox="0 0 64 64"><style>.p{fill:#111110}.a{fill:#FF4F00}@media(prefers-color-scheme:dark){.p{fill:#E8E6DD}.a{fill:#FF5C0A}}</style><rect class="p" x="30.8" y="58.2" width="2.3" height="2.3" fill-opacity="0.64"/><rect class="p" x="30.7" y="57.8" width="2.4" height="2.4" fill-opacity="0.67"/><rect class="p" x="27.6" y="57.9" width="2.2" height="2.2" fill-opacity="0.59"/><rect class="p" x="37.3" y="57.4" width="2.3" height="2.3" fill-opacity="0.64"/><rect class="p" x="24.5" y="56.9" width="2.4" height="2.4" fill-opacity="0.68"/><rect class="p" x="32.5" y="57.4" width="2.1" height="2.1" fill-opacity="0.55"/><rect class="p" x="35.8" y="56.1" width="2.5" height="2.5" fill-opacity="0.71"/><rect class="p" x="21.8" y="56.6" width="2.2" height="2.2" fill-opacity="0.60"/><rect class="p" x="39.8" y="56.5" width="2.2" height="2.2" fill-opacity="0.58"/><rect class="p" x="26.1" y="55.1" width="2.5" height="2.5" fill-opacity="0.74"/><rect class="p" x="27.3" y="56.4" width="2.0" height="2.0" fill-opacity="0.51"/><rect class="p" x="42.3" y="55.0" width="2.4" height="2.4" fill-opacity="0.68"/><rect class="p" x="18.2" y="54.9" width="2.4" height="2.4" fill-opacity="0.66"/><rect class="p" x="37.1" y="55.8" width="2.0" height="2.0" fill-opacity="0.51"/><rect class="p" x="33.7" y="53.4" width="2.6" height="2.6" fill-opacity="0.76"/><rect class="p" x="20.8" y="55.1" width="2.1" height="2.1" fill-opacity="0.53"/><rect class="p" x="44.9" y="54.3" width="2.2" height="2.2" fill-opacity="0.61"/><rect class="p" x="19.5" y="52.8" width="2.5" height="2.5" fill-opacity="0.74"/><rect class="p" x="30.9" y="55.0" width="1.9" height="1.9" fill-opacity="0.46"/><rect class="p" x="42.9" y="52.2" width="2.5" height="2.5" fill-opacity="0.74"/><rect class="p" x="15.3" y="53.3" width="2.2" height="2.2" fill-opacity="0.61"/><rect class="p" x="42.4" y="53.9" width="2.0" height="2.0" fill-opacity="0.51"/><rect class="p" x="27.4" y="50.6" width="2.7" height="2.7" fill-opacity="0.79"/><rect class="p" x="23.1" y="53.8" width="1.9" height="1.9" fill-opacity="0.46"/><rect class="p" x="48.2" y="51.7" width="2.4" height="2.4" fill-opacity="0.66"/><rect class="p" x="13.9" y="50.9" width="2.5" height="2.5" fill-opacity="0.70"/><rect class="p" x="36.0" y="53.4" width="1.8" height="1.8" fill-opacity="0.43"/><rect class="p" x="39.3" y="49.1" width="2.7" height="2.7" fill-opacity="0.79"/><rect class="p" x="15.7" y="52.1" width="2.1" height="2.1" fill-opacity="0.53"/><rect class="p" x="47.4" y="51.7" width="2.1" height="2.1" fill-opacity="0.55"/><rect class="p" x="19.4" y="48.2" width="2.6" height="2.6" fill-opacity="0.78"/><rect class="p" x="27.6" y="52.6" width="1.8" height="1.8" fill-opacity="0.41"/><rect class="p" x="48.8" y="48.6" width="2.5" height="2.5" fill-opacity="0.72"/><rect class="p" x="11.0" y="49.7" width="2.3" height="2.3" fill-opacity="0.64"/><rect class="p" x="41.7" y="51.7" width="1.9" height="1.9" fill-opacity="0.44"/><rect class="p" x="32.0" y="45.9" width="2.7" height="2.7" fill-opacity="0.82"/><rect class="p" x="18.7" y="51.1" width="1.9" height="1.9" fill-opacity="0.45"/><rect class="p" x="51.3" y="49.0" width="2.2" height="2.2" fill-opacity="0.61"/><rect class="p" x="12.4" y="46.5" width="2.6" height="2.6" fill-opacity="0.75"/><rect class="p" x="33.2" y="51.3" width="1.7" height="1.7" fill-opacity="0.38"/><rect class="p" x="45.7" y="45.1" width="2.6" height="2.6" fill-opacity="0.78"/><rect class="p" x="11.3" y="48.8" width="2.1" height="2.1" fill-opacity="0.55"/><rect class="p" x="47.4" y="49.5" width="1.9" height="1.9" fill-opacity="0.48"/><rect class="p" x="22.5" y="43.3" width="2.7" height="2.7" fill-opacity="0.82"/><rect class="p" x="23.5" y="50.2" width="1.7" height="1.7" fill-opacity="0.38"/><rect class="p" x="53.0" y="45.7" width="2.4" height="2.4" fill-opacity="0.68"/><rect class="p" x="8.3" y="45.5" width="2.4" height="2.4" fill-opacity="0.68"/><rect class="p" x="39.4" y="49.6" width="1.7" height="1.7" fill-opacity="0.38"/><rect class="p" x="38.5" y="41.5" width="2.7" height="2.7" fill-opacity="0.83"/><rect class="p" x="14.3" y="48.2" width="1.9" height="1.9" fill-opacity="0.46"/><rect class="p" x="52.2" y="46.8" width="2.1" height="2.1" fill-opacity="0.54"/><rect class="p" x="13.5" y="41.6" width="2.7" height="2.7" fill-opacity="0.79"/><rect class="p" x="29.5" y="49.1" width="1.6" height="1.6" fill-opacity="0.34"/><rect class="p" x="51.3" y="41.8" width="2.6" height="2.6" fill-opacity="0.76"/><rect class="p" x="7.8" y="45.1" width="2.2" height="2.2" fill-opacity="0.59"/><rect class="p" x="45.5" y="47.6" width="1.8" height="1.8" fill-opacity="0.41"/><rect class="p" x="28.1" y="38.4" width="2.8" height="2.8" fill-opacity="0.84"/><rect class="p" x="19.2" y="47.6" width="1.7" height="1.7" fill-opacity="0.38"/><rect class="p" x="55.2" y="43.4" width="2.3" height="2.3" fill-opacity="0.63"/><rect class="p" x="7.4" y="40.9" width="2.5" height="2.5" fill-opacity="0.72"/><rect class="p" x="36.0" y="47.7" width="1.6" height="1.6" fill-opacity="0.32"/><rect class="p" x="45.3" y="37.7" width="2.7" height="2.7" fill-opacity="0.81"/><rect class="p" x="10.3" y="44.9" width="2.0" height="2.0" fill-opacity="0.49"/><rect class="p" x="51.1" y="44.9" width="1.9" height="1.9" fill-opacity="0.47"/><rect class="p" x="17.2" y="36.5" width="2.7" height="2.7" fill-opacity="0.82"/><rect class="p" x="25.3" y="46.8" width="1.6" height="1.6" fill-opacity="0.32"/><rect class="p" x="55.3" y="39.3" width="2.5" height="2.5" fill-opacity="0.71"/><rect class="p" x="5.4" y="40.9" width="2.3" height="2.3" fill-opacity="0.63"/><rect class="p" x="42.6" y="45.8" width="1.6" height="1.6" fill-opacity="0.35"/><rect class="p" x="35.2" y="34.0" width="2.8" height="2.8" fill-opacity="0.85"/><rect class="p" x="15.0" y="44.7" width="1.7" height="1.7" fill-opacity="0.39"/><rect class="p" x="55.4" y="41.6" width="2.1" height="2.1" fill-opacity="0.56"/><rect class="p" x="8.8" y="35.8" width="2.6" height="2.6" fill-opacity="0.77"/><rect class="p" x="32.0" y="45.7" width="1.5" height="1.5" fill-opacity="0.29"/><rect class="p" x="51.3" y="34.7" width="2.6" height="2.6" fill-opacity="0.78"/><rect class="p" x="6.9" y="41.2" width="2.1" height="2.1" fill-opacity="0.53"/><rect class="p" x="48.8" y="43.3" width="1.8" height="1.8" fill-opacity="0.40"/><rect class="p" x="23.2" y="31.4" width="2.8" height="2.8" fill-opacity="0.84"/><rect class="p" x="21.0" y="44.3" width="1.6" height="1.6" fill-opacity="0.32"/><rect class="p" x="57.3" y="37.4" width="2.3" height="2.3" fill-opacity="0.65"/><rect class="p" x="4.6" y="36.1" width="2.4" height="2.4" fill-opacity="0.68"/><rect class="p" x="38.9" y="44.1" width="1.5" height="1.5" fill-opacity="0.29"/><rect class="p" x="42.7" y="30.2" width="2.8" height="2.8" fill-opacity="0.83"/><rect class="p" x="11.0" y="41.5" width="1.8" height="1.8" fill-opacity="0.43"/><rect class="p" x="54.0" y="40.1" width="2.0" height="2.0" fill-opacity="0.48"/><rect class="p" x="12.5" y="30.4" width="2.7" height="2.7" fill-opacity="0.80"/><rect class="p" x="27.7" y="43.5" width="1.5" height="1.5" fill-opacity="0.27"/><rect class="p" x="55.6" y="32.5" width="2.5" height="2.5" fill-opacity="0.73"/><rect class="p" x="4.5" y="36.9" width="2.2" height="2.2" fill-opacity="0.58"/><rect class="p" x="45.5" y="41.9" width="1.6" height="1.6" fill-opacity="0.34"/><rect class="p" x="30.7" y="26.8" width="2.8" height="2.8" fill-opacity="0.85"/><rect class="p" x="16.8" y="41.5" width="1.6" height="1.6" fill-opacity="0.33"/><rect class="p" x="57.4" y="36.1" width="2.2" height="2.2" fill-opacity="0.58"/><rect class="p" x="5.7" y="30.9" width="2.5" height="2.5" fill-opacity="0.73"/><rect class="p" x="34.8" y="42.2" width="1.4" height="1.4" fill-opacity="0.25"/><rect class="p" x="49.3" y="27.5" width="2.7" height="2.7" fill-opacity="0.80"/><rect class="p" x="7.6" y="37.7" width="1.9" height="1.9" fill-opacity="0.47"/><rect class="p" x="51.4" y="38.9" width="1.8" height="1.8" fill-opacity="0.41"/><rect class="p" x="18.3" y="25.2" width="2.7" height="2.7" fill-opacity="0.83"/><rect class="p" x="23.4" y="41.1" width="1.5" height="1.5" fill-opacity="0.27"/><rect class="p" x="57.8" y="31.1" width="2.4" height="2.4" fill-opacity="0.67"/><rect class="p" x="3.5" y="32.1" width="2.3" height="2.3" fill-opacity="0.63"/><rect class="p" x="41.6" y="40.3" width="1.5" height="1.5" fill-opacity="0.28"/><rect class="p" x="38.6" y="23.1" width="2.8" height="2.8" fill-opacity="0.84"/><rect class="p" x="12.8" y="38.3" width="1.7" height="1.7" fill-opacity="0.37"/><rect class="p" x="56.0" y="35.0" width="2.0" height="2.0" fill-opacity="0.50"/><rect class="p" x="9.0" y="25.4" width="2.6" height="2.6" fill-opacity="0.77"/><rect class="p" x="30.4" y="40.2" width="1.4" height="1.4" fill-opacity="0.23"/><rect class="p" x="54.1" y="25.7" width="2.6" height="2.6" fill-opacity="0.75"/><rect class="p" x="5.2" y="33.5" width="2.0" height="2.0" fill-opacity="0.52"/><rect class="p" x="48.0" y="37.7" width="1.6" height="1.6" fill-opacity="0.34"/><rect class="p" x="25.8" y="20.5" width="2.8" height="2.8" fill-opacity="0.83"/><rect class="p" x="19.2" y="38.4" width="1.5" height="1.5" fill-opacity="0.28"/><rect class="p" x="58.1" y="30.2" width="2.2" height="2.2" fill-opacity="0.60"/><rect class="p" x="4.3" y="26.9" width="2.4" height="2.4" fill-opacity="0.68"/><rect class="p" x="37.4" y="38.7" width="1.4" height="1.4" fill-opacity="0.24"/><rect class="p" x="45.6" y="20.6" width="2.7" height="2.7" fill-opacity="0.80"/><rect class="p" x="9.5" y="34.6" width="1.8" height="1.8" fill-opacity="0.41"/><rect class="p" x="53.3" y="34.1" width="1.8" height="1.8" fill-opacity="0.42"/><rect class="p" x="14.4" y="20.1" width="2.7" height="2.7" fill-opacity="0.80"/><rect class="p" x="26.1" y="37.9" width="1.4" height="1.4" fill-opacity="0.23"/><rect class="p" x="56.8" y="24.7" width="2.4" height="2.4" fill-opacity="0.69"/><rect class="p" x="4.0" y="28.8" width="2.2" height="2.2" fill-opacity="0.58"/><rect class="p" x="44.1" y="36.4" width="1.5" height="1.5" fill-opacity="0.28"/><rect class="p" x="33.7" y="16.9" width="2.7" height="2.7" fill-opacity="0.82"/><rect class="p" x="15.3" y="35.3" width="1.6" height="1.6" fill-opacity="0.31"/><rect class="p" x="56.8" y="29.6" width="2.0" height="2.0" fill-opacity="0.52"/><rect class="p" x="7.1" y="21.4" width="2.5" height="2.5" fill-opacity="0.72"/><rect class="p" x="33.1" y="36.8" width="1.3" height="1.3" fill-opacity="0.21"/><rect class="p" x="51.0" y="19.1" width="2.6" height="2.6" fill-opacity="0.76"/><rect class="p" x="7.0" y="30.5" width="1.9" height="1.9" fill-opacity="0.46"/><rect class="p" x="49.9" y="33.2" width="1.7" height="1.7" fill-opacity="0.35"/><rect class="p" x="21.4" y="15.4" width="2.7" height="2.7" fill-opacity="0.81"/><rect class="p" x="22.0" y="35.3" width="1.4" height="1.4" fill-opacity="0.24"/><rect class="p" x="57.4" y="24.3" width="2.3" height="2.3" fill-opacity="0.62"/><rect class="p" x="4.5" y="23.6" width="2.3" height="2.3" fill-opacity="0.63"/><rect class="p" x="39.9" y="34.9" width="1.4" height="1.4" fill-opacity="0.24"/><rect class="p" x="41.0" y="14.4" width="2.7" height="2.7" fill-opacity="0.80"/><rect class="p" x="12.1" y="31.7" width="1.7" height="1.7" fill-opacity="0.36"/><rect class="p" x="54.3" y="29.1" width="1.9" height="1.9" fill-opacity="0.44"/><rect class="p" x="11.8" y="16.2" width="2.6" height="2.6" fill-opacity="0.75"/><rect class="p" x="28.9" y="34.6" width="1.3" height="1.3" fill-opacity="0.21"/><rect class="p" x="54.1" y="18.5" width="2.4" height="2.4" fill-opacity="0.70"/><rect class="p" x="5.8" y="25.9" width="2.0" height="2.0" fill-opacity="0.51"/><rect class="p" x="46.0" y="32.2" width="1.5" height="1.5" fill-opacity="0.29"/><rect class="p" x="29.0" y="11.8" width="2.7" height="2.7" fill-opacity="0.80"/><rect class="p" x="18.2" y="32.3" width="1.5" height="1.5" fill-opacity="0.27"/><rect class="p" x="56.4" y="24.1" width="2.1" height="2.1" fill-opacity="0.54"/><rect class="p" x="6.8" y="18.4" width="2.4" height="2.4" fill-opacity="0.67"/><rect class="p" x="35.6" y="33.2" width="1.3" height="1.3" fill-opacity="0.21"/><rect class="p" x="46.7" y="13.1" width="2.6" height="2.6" fill-opacity="0.75"/><rect class="p" x="9.7" y="27.7" width="1.8" height="1.8" fill-opacity="0.41"/><rect class="p" x="51.0" y="28.5" width="1.7" height="1.7" fill-opacity="0.37"/><rect class="p" x="18.1" y="11.6" width="2.6" height="2.6" fill-opacity="0.76"/><rect class="p" x="24.9" y="32.1" width="1.3" height="1.3" fill-opacity="0.22"/><rect class="p" x="55.2" y="18.4" width="2.3" height="2.3" fill-opacity="0.63"/><rect class="p" x="6.0" y="20.9" width="2.1" height="2.1" fill-opacity="0.56"/><rect class="p" x="41.9" y="30.9" width="1.4" height="1.4" fill-opacity="0.25"/><rect class="p" x="36.1" y="9.4" width="2.6" height="2.6" fill-opacity="0.77"/><rect class="p" x="15.2" y="28.8" width="1.6" height="1.6" fill-opacity="0.31"/><rect class="p" x="54.1" y="23.9" width="1.9" height="1.9" fill-opacity="0.46"/><rect class="p" x="10.9" y="13.3" width="2.4" height="2.4" fill-opacity="0.70"/><rect class="p" x="31.5" y="31.1" width="1.3" height="1.3" fill-opacity="0.20"/><rect class="p" x="50.2" y="12.8" width="2.4" height="2.4" fill-opacity="0.70"/><rect class="p" x="8.5" y="23.3" width="1.9" height="1.9" fill-opacity="0.46"/><rect class="p" x="47.2" y="27.6" width="1.6" height="1.6" fill-opacity="0.31"/><rect class="p" x="25.1" y="8.0" width="2.6" height="2.6" fill-opacity="0.76"/><rect class="p" x="21.3" y="29.1" width="1.4" height="1.4" fill-opacity="0.24"/><rect class="p" x="54.5" y="18.5" width="2.1" height="2.1" fill-opacity="0.55"/><rect class="p" x="8.0" y="15.9" width="2.2" height="2.2" fill-opacity="0.61"/><rect class="p" x="37.7" y="29.2" width="1.3" height="1.3" fill-opacity="0.22"/><rect class="p" x="41.7" y="8.3" width="2.5" height="2.5" fill-opacity="0.73"/><rect class="p" x="13.0" y="24.9" width="1.7" height="1.7" fill-opacity="0.36"/><rect class="p" x="50.9" y="23.5" width="1.8" height="1.8" fill-opacity="0.40"/><rect class="p" x="16.5" y="8.9" width="2.5" height="2.5" fill-opacity="0.71"/><rect class="p" x="27.7" y="28.6" width="1.3" height="1.3" fill-opacity="0.21"/><rect class="p" x="51.6" y="13.0" width="2.3" height="2.3" fill-opacity="0.63"/><rect class="p" x="8.8" y="18.6" width="2.0" height="2.0" fill-opacity="0.50"/><rect class="p" x="43.1" y="26.4" width="1.5" height="1.5" fill-opacity="0.27"/><rect class="p" x="31.7" y="5.8" width="2.5" height="2.5" fill-opacity="0.73"/><rect class="p" x="18.5" y="25.7" width="1.5" height="1.5" fill-opacity="0.28"/><rect class="p" x="52.4" y="18.6" width="1.9" height="1.9" fill-opacity="0.48"/><rect class="p" x="11.8" y="11.2" width="2.3" height="2.3" fill-opacity="0.63"/><rect class="p" x="33.7" y="27.1" width="1.3" height="1.3" fill-opacity="0.21"/><rect class="p" x="45.3" y="8.1" width="2.4" height="2.4" fill-opacity="0.68"/><rect class="p" x="12.1" y="20.6" width="1.8" height="1.8" fill-opacity="0.41"/><rect class="p" x="47.1" y="22.7" width="1.6" height="1.6" fill-opacity="0.34"/><rect class="p" x="22.7" y="5.7" width="2.5" height="2.5" fill-opacity="0.70"/><rect class="p" x="24.4" y="25.6" width="1.4" height="1.4" fill-opacity="0.23"/><rect class="p" x="51.0" y="13.3" width="2.1" height="2.1" fill-opacity="0.56"/><rect class="p" x="10.8" y="13.9" width="2.1" height="2.1" fill-opacity="0.54"/><rect class="p" x="39.0" y="24.8" width="1.4" height="1.4" fill-opacity="0.24"/><rect class="p" x="36.9" y="4.9" width="2.4" height="2.4" fill-opacity="0.69"/><rect class="p" x="16.8" y="21.8" width="1.6" height="1.6" fill-opacity="0.32"/><rect class="p" x="49.3" y="18.3" width="1.8" height="1.8" fill-opacity="0.42"/><rect class="p" x="16.8" y="7.4" width="2.3" height="2.3" fill-opacity="0.64"/><rect class="p" x="30.2" y="24.5" width="1.3" height="1.3" fill-opacity="0.22"/><rect class="p" x="46.6" y="8.5" width="2.3" height="2.3" fill-opacity="0.61"/><rect class="p" x="12.8" y="16.2" width="1.9" height="1.9" fill-opacity="0.45"/><rect class="p" x="43.1" y="21.5" width="1.5" height="1.5" fill-opacity="0.30"/><rect class="p" x="28.6" y="3.9" width="2.4" height="2.4" fill-opacity="0.67"/><rect class="p" x="22.1" y="22.1" width="1.5" height="1.5" fill-opacity="0.27"/><rect class="p" x="48.9" y="13.6" width="2.0" height="2.0" fill-opacity="0.49"/><rect class="p" x="14.5" y="9.8" width="2.1" height="2.1" fill-opacity="0.56"/><rect class="p" x="35.2" y="22.5" width="1.4" height="1.4" fill-opacity="0.24"/><rect class="p" x="40.0" y="5.1" width="2.3" height="2.3" fill-opacity="0.64"/><rect class="p" x="16.6" y="17.7" width="1.7" height="1.7" fill-opacity="0.37"/><rect class="p" x="45.4" y="17.6" width="1.7" height="1.7" fill-opacity="0.37"/><rect class="p" x="22.4" y="4.8" width="2.3" height="2.3" fill-opacity="0.63"/><rect class="p" x="27.4" y="21.3" width="1.4" height="1.4" fill-opacity="0.25"/><rect class="p" x="45.8" y="9.1" width="2.1" height="2.1" fill-opacity="0.54"/><rect class="p" x="15.3" y="12.0" width="1.9" height="1.9" fill-opacity="0.48"/><rect class="p" x="39.1" y="19.6" width="1.5" height="1.5" fill-opacity="0.28"/><rect class="p" x="32.9" y="3.6" width="2.3" height="2.3" fill-opacity="0.63"/><rect class="p" x="21.2" y="18.1" width="1.6" height="1.6" fill-opacity="0.31"/><rect class="p" x="45.4" y="13.3" width="1.8" height="1.8" fill-opacity="0.43"/><rect class="p" x="19.5" y="6.7" width="2.1" height="2.1" fill-opacity="0.56"/><rect class="p" x="32.0" y="19.5" width="1.4" height="1.4" fill-opacity="0.26"/><rect class="p" x="40.6" y="5.9" width="2.1" height="2.1" fill-opacity="0.57"/><rect class="p" x="18.3" y="13.5" width="1.8" height="1.8" fill-opacity="0.41"/><rect class="p" x="41.1" y="16.1" width="1.6" height="1.6" fill-opacity="0.34"/><rect class="p" x="27.5" y="4.0" width="2.2" height="2.2" fill-opacity="0.59"/><rect class="p" x="25.9" y="17.4" width="1.5" height="1.5" fill-opacity="0.29"/><rect class="p" x="42.8" y="9.5" width="1.9" height="1.9" fill-opacity="0.48"/><rect class="p" x="19.9" y="8.7" width="2.0" height="2.0" fill-opacity="0.49"/><rect class="p" x="35.2" y="16.7" width="1.5" height="1.5" fill-opacity="0.30"/><rect class="p" x="34.9" y="4.5" width="2.1" height="2.1" fill-opacity="0.56"/><rect class="p" x="22.5" y="13.8" width="1.7" height="1.7" fill-opacity="0.36"/><rect class="p" x="40.5" y="12.3" width="1.7" height="1.7" fill-opacity="0.39"/><rect class="p" x="25.2" y="5.6" width="2.0" height="2.0" fill-opacity="0.52"/><rect class="p" x="29.9" y="15.3" width="1.5" height="1.5" fill-opacity="0.31"/><rect class="p" x="38.1" y="7.1" width="2.0" height="2.0" fill-opacity="0.49"/><rect class="p" x="23.1" y="9.9" width="1.8" height="1.8" fill-opacity="0.43"/><rect class="p" x="36.0" y="13.1" width="1.6" height="1.6" fill-opacity="0.35"/><rect class="p" x="30.9" y="5.5" width="2.0" height="2.0" fill-opacity="0.51"/><rect class="p" x="27.4" y="12.3" width="1.7" height="1.7" fill-opacity="0.36"/><rect class="p" x="36.3" y="9.2" width="1.8" height="1.8" fill-opacity="0.42"/><rect class="p" x="27.5" y="7.8" width="1.9" height="1.9" fill-opacity="0.45"/><rect class="p" x="31.7" y="11.0" width="1.7" height="1.7" fill-opacity="0.38"/><rect class="p" x="31.1" y="9.0" width="1.8" height="1.8" fill-opacity="0.41"/><rect class="a" x="30.4" y="57.7" width="3.3" height="3.3" fill-opacity="0.84"/><rect class="a" x="34.4" y="57.3" width="3.2" height="3.2" fill-opacity="0.80"/><rect class="a" x="37.9" y="55.7" width="3.0" height="3.0" fill-opacity="0.76"/><rect class="a" x="40.8" y="53.2" width="2.9" height="2.9" fill-opacity="0.72"/><rect class="a" x="43.0" y="50.1" width="2.8" height="2.8" fill-opacity="0.68"/><rect class="a" x="44.6" y="46.4" width="2.7" height="2.7" fill-opacity="0.65"/><rect class="a" x="45.5" y="42.4" width="2.6" height="2.6" fill-opacity="0.62"/><rect class="a" x="45.8" y="38.2" width="2.5" height="2.5" fill-opacity="0.59"/><rect class="a" x="45.5" y="33.9" width="2.4" height="2.4" fill-opacity="0.57"/><rect class="a" x="44.8" y="29.6" width="2.4" height="2.4" fill-opacity="0.56"/><rect class="a" x="43.5" y="25.4" width="2.4" height="2.4" fill-opacity="0.56"/><rect class="a" x="41.8" y="21.4" width="2.4" height="2.4" fill-opacity="0.57"/><rect class="a" x="39.6" y="17.6" width="2.5" height="2.5" fill-opacity="0.58"/><rect class="a" x="37.0" y="14.1" width="2.5" height="2.5" fill-opacity="0.60"/><rect class="a" x="34.0" y="11.0" width="2.6" height="2.6" fill-opacity="0.63"/><rect class="a" x="30.6" y="8.6" width="2.7" height="2.7" fill-opacity="0.66"/><rect class="a" x="27.0" y="6.8" width="2.8" height="2.8" fill-opacity="0.70"/><rect class="a" x="23.2" y="5.9" width="3.0" height="3.0" fill-opacity="0.74"/><rect class="a" x="19.4" y="6.0" width="3.1" height="3.1" fill-opacity="0.78"/><rect class="a" x="15.7" y="7.3" width="3.2" height="3.2" fill-opacity="0.82"/><rect class="a" x="12.3" y="10.0" width="3.3" height="3.3" fill-opacity="0.85"/><rect class="a" x="9.6" y="13.9" width="3.4" height="3.4" fill-opacity="0.88"/><rect class="a" x="7.8" y="19.1" width="3.5" height="3.5" fill-opacity="0.91"/><rect class="a" x="7.1" y="25.3" width="3.6" height="3.6" fill-opacity="0.93"/><rect class="a" x="7.7" y="32.1" width="3.6" height="3.6" fill-opacity="0.94"/><rect class="a" x="9.7" y="38.9" width="3.6" height="3.6" fill-opacity="0.94"/><rect class="a" x="12.8" y="45.2" width="3.6" height="3.6" fill-opacity="0.93"/><rect class="a" x="16.7" y="50.5" width="3.5" height="3.5" fill-opacity="0.92"/><rect class="a" x="21.2" y="54.4" width="3.5" height="3.5" fill-opacity="0.90"/><rect class="a" x="25.9" y="56.8" width="3.4" height="3.4" fill-opacity="0.87"/></svg>
